<?xml version="1.0" standalone="no"?>
<!DOCTYPE svg PUBLIC "-//W3C//DTD SVG 20010904//EN"
 "http://www.w3.org/TR/2001/REC-SVG-20010904/DTD/svg10.dtd">
<svg version="1.0" xmlns="http://www.w3.org/2000/svg"
 width="596.000000pt" height="140.000000pt" viewBox="0 0 596.000000 140.000000"
 preserveAspectRatio="xMidYMid meet">

<g transform="translate(0.000000,140.000000) scale(0.100000,-0.100000)"
fill="#000000" stroke="none">
<path d="M405 1361 c-131 -10 -197 -32 -251 -86 -74 -74 -77 -94 -82 -523 -2
-237 0 -404 7 -455 14 -106 46 -174 98 -210 83 -58 105 -60 507 -65 395 -4
497 3 568 39 133 66 158 164 158 624 0 256 -13 443 -34 502 -30 85 -84 130
-189 160 -60 16 -614 26 -782 14z m732 -231 c36 -22 60 -82 49 -124 -3 -14
-19 -40 -35 -58 -24 -27 -35 -31 -75 -31 -39 0 -52 5 -77 29 -100 100 18 258
138 184z m-269 -240 c33 -17 75 -47 93 -67 134 -153 89 -392 -92 -482 -205
-102 -429 44 -430 281 -1 221 231 366 429 268z"/>
<path d="M674 746 c-67 -29 -97 -108 -70 -181 43 -112 186 -126 254 -25 20 29
23 44 20 88 -9 102 -108 160 -204 118z"/>
<path d="M2430 705 l0 -405 80 0 80 0 0 198 c0 220 0 219 68 243 41 14 85 -2
101 -37 7 -16 11 -95 11 -214 l0 -190 80 0 80 0 0 193 c0 226 -10 278 -65 326
-65 57 -149 62 -232 15 l-42 -25 -3 148 -3 148 -77 3 -78 3 0 -406z"/>
<path d="M1727 1083 c-4 -3 -7 -181 -7 -395 l0 -388 90 0 90 0 0 130 0 130 70
0 c81 0 161 15 210 40 96 49 145 165 120 284 -22 108 -101 174 -231 196 -71
11 -332 14 -342 3z m351 -153 c38 -23 52 -54 52 -117 0 -38 -5 -50 -34 -79
-33 -33 -36 -34 -115 -34 l-81 0 0 125 0 125 73 0 c54 0 80 -5 105 -20z"/>
<path d="M4667 1084 c-4 -4 -7 -180 -7 -391 l0 -383 90 0 90 0 0 150 0 150
135 0 136 0 -3 68 -3 67 -132 3 -133 3 0 99 0 100 160 0 161 0 -3 68 -3 67
-241 3 c-132 1 -243 -1 -247 -4z"/>
<path d="M3736 968 c-8 -29 -17 -65 -20 -80 -5 -20 -14 -29 -34 -34 -64 -14
-63 -13 -60 -57 3 -41 4 -42 41 -45 l37 -3 0 -170 c0 -185 7 -220 54 -257 15
-11 48 -24 73 -28 49 -7 137 9 165 29 15 12 14 17 -10 55 -25 40 -30 42 -60
37 -59 -11 -62 -1 -62 176 l0 159 65 0 65 0 0 55 0 55 -65 0 -65 0 0 80 0 80
-55 0 -54 0 -15 -52z"/>
<path d="M3253 860 c-124 -26 -202 -120 -211 -255 -8 -134 44 -236 145 -286
69 -33 198 -34 265 -1 97 48 149 141 147 266 -1 82 -12 117 -55 179 -55 77
-182 119 -291 97z m137 -139 c35 -25 55 -108 45 -186 -6 -48 -13 -65 -40 -92
-43 -43 -98 -46 -144 -8 -52 44 -64 179 -24 258 28 55 108 69 163 28z"/>
<path d="M4251 860 c-96 -20 -175 -92 -201 -184 -18 -65 -9 -190 18 -242 24
-48 80 -100 131 -122 23 -10 66 -16 121 -16 73 0 92 4 136 27 102 52 150 149
142 281 -8 115 -64 201 -161 241 -44 18 -133 25 -186 15z m114 -124 c58 -24
84 -113 65 -216 -17 -95 -91 -136 -169 -95 -39 20 -56 67 -56 155 0 90 17 128
65 152 42 22 51 22 95 4z"/>
<path d="M5310 852 c0 -5 35 -89 79 -188 43 -98 92 -211 109 -250 l30 -71 -53
-111 -54 -112 73 0 c47 0 77 5 84 12 14 17 302 700 302 716 0 15 -112 17 -139
2 -12 -6 -38 -65 -72 -165 -29 -85 -56 -155 -60 -155 -4 0 -32 69 -63 153 -32
83 -64 158 -73 165 -19 13 -163 17 -163 4z"/>
</g>
</svg>
