<?xml version="1.0" standalone="no"?>
<!DOCTYPE svg PUBLIC "-//W3C//DTD SVG 20010904//EN"
 "http://www.w3.org/TR/2001/REC-SVG-20010904/DTD/svg10.dtd">
<svg version="1.0" xmlns="http://www.w3.org/2000/svg"
 width="145.000000pt" height="138.000000pt" viewBox="0 0 145.000000 138.000000"
 preserveAspectRatio="xMidYMid meet">

<g transform="translate(0.000000,138.000000) scale(0.100000,-0.100000)"
fill="#000000" stroke="none">
<path d="M395 1361 c-131 -10 -197 -32 -251 -86 -74 -74 -77 -94 -82 -523 -2
-237 0 -404 7 -455 14 -106 46 -174 98 -210 83 -58 105 -60 507 -65 395 -4
497 3 568 39 133 66 158 164 158 624 0 256 -13 443 -34 502 -30 85 -84 130
-189 160 -60 16 -614 26 -782 14z m732 -231 c36 -22 60 -82 49 -124 -3 -14
-19 -40 -35 -58 -24 -27 -35 -31 -75 -31 -39 0 -52 5 -77 29 -100 100 18 258
138 184z m-269 -240 c33 -17 75 -47 93 -67 134 -153 89 -392 -92 -482 -205
-102 -429 44 -430 281 -1 221 231 366 429 268z"/>
<path d="M664 746 c-67 -29 -97 -108 -70 -181 43 -112 186 -126 254 -25 20 29
23 44 20 88 -9 102 -108 160 -204 118z"/>
</g>
</svg>
